HIERARCHY
ROOT Hips
{
	OFFSET -3.958830 18.904000 13.208200
	CHANNELS 6 Xposition Yposition Zposition Zrotation Yrotation Xrotation 
	JOINT LHipJoint
	{
		OFFSET 0.000000 0.000000 0.000000
		CHANNELS 3 Zrotation Yrotation Xrotation
		JOINT LeftUpLeg
		{
			OFFSET 1.800000 -1.400000 0.085000
			CHANNELS 3 Zrotation Yrotation Xrotation
			JOINT LeftLeg
			{
				OFFSET 2.215000 -6.000000 0.000000
				CHANNELS 3 Zrotation Yrotation Xrotation
				JOINT LeftFoot
				{
					OFFSET 2.500000 -6.900000 0.000000
					CHANNELS 3 Zrotation Yrotation Xrotation
					JOINT LeftToeBase
					{
						OFFSET 0.200000 -0.500000 1.950000
						CHANNELS 3 Zrotation Yrotation Xrotation
						End Site
						{
							OFFSET 0.000000 0.000000 0.000000
						}
					}
				}
			}
		}
	}
	JOINT RHipJoint
	{
		OFFSET 0.000000 0.000000 0.000000
		CHANNELS 3 Zrotation Yrotation Xrotation
		JOINT RightUpLeg
		{
			OFFSET -1.800000 -1.400000 0.085000
			CHANNELS 3 Zrotation Yrotation Xrotation
			JOINT RightLeg
			{
				OFFSET -2.215000 -6.000000 0.000000
				CHANNELS 3 Zrotation Yrotation Xrotation
				JOINT RightFoot
				{
					OFFSET -2.500000 -6.900000 0.000000
					CHANNELS 3 Zrotation Yrotation Xrotation
					JOINT RightToeBase
					{
						OFFSET -0.200000 -0.500000 1.950000
						CHANNELS 3 Zrotation Yrotation Xrotation
						End Site
						{
							OFFSET 0.000000 0.000000 0.000000
						}
					}
				}
			}
		}
	}
	JOINT LowerBack
	{
		OFFSET 0.000000 0.000000 0.000000
		CHANNELS 3 Zrotation Yrotation Xrotation
		JOINT Spine
		{
			OFFSET -0.087000 1.940000 -0.288900
			CHANNELS 3 Zrotation Yrotation Xrotation
			JOINT Spine1
			{
				OFFSET 0.000000 1.950000 0.060000
				CHANNELS 3 Zrotation Yrotation Xrotation
				JOINT Neck
				{
					OFFSET 0.000000 0.000000 0.000000
					CHANNELS 3 Zrotation Yrotation Xrotation
					JOINT Neck1
					{
						OFFSET 0.000000 1.600000 0.340000
						CHANNELS 3 Zrotation Yrotation Xrotation
						JOINT Head
						{
							OFFSET 0.000000 1.667000 -0.240000
							CHANNELS 3 Zrotation Yrotation Xrotation
							End Site
							{
								OFFSET 0.000000 0.000000 0.000000
							}
						}
					}
				}
				JOINT LeftShoulder
				{
					OFFSET 0.000000 0.000000 0.000000
					CHANNELS 3 Zrotation Yrotation Xrotation
					JOINT LeftArm
					{
						OFFSET 2.700000 1.550000 -0.730000
						CHANNELS 3 Zrotation Yrotation Xrotation
						JOINT LeftForeArm
						{
							OFFSET 5.450000 0.000000 0.000000
							CHANNELS 3 Zrotation Yrotation Xrotation
							JOINT LeftHand
							{
								OFFSET 3.450000 0.000000 0.000000
								CHANNELS 3 Zrotation Yrotation Xrotation
								JOINT LeftHandIndex1
								{
									OFFSET 0.750000 0.000000 0.000000
									CHANNELS 3 Zrotation Yrotation Xrotation
									End Site
									{
										OFFSET 0.000000 0.000000 0.000000
									}
								}
							}
						}
					}
				}
				JOINT RightShoulder
				{
					OFFSET 0.000000 0.000000 0.000000
					CHANNELS 3 Zrotation Yrotation Xrotation
					JOINT RightArm
					{
						OFFSET -2.700000 1.550000 -0.730000
						CHANNELS 3 Zrotation Yrotation Xrotation
						JOINT RightForeArm
						{
							OFFSET -5.450000 0.000000 0.000000
							CHANNELS 3 Zrotation Yrotation Xrotation
							JOINT RightHand
							{
								OFFSET -3.450000 0.000000 0.000000
								CHANNELS 3 Zrotation Yrotation Xrotation
								JOINT RightHandIndex1
								{
									OFFSET -0.750000 0.000000 0.000000
									CHANNELS 3 Zrotation Yrotation Xrotation
									End Site
									{
										OFFSET 0.000000 0.000000 0.000000
									}
								}
							}
						}
					}
				}
			}
		}
	}
}
MOTION
Frames: 10
Frame Time: 0.016667
-1.424020 17.397220 -1.298660 2.117371 5.746540 -7.990179 -15.857821 12.648483 3.920251 -2.996791 -9.064437 -8.959206 -17.117386 20.423005 54.580900 1.206094 12.868267 0.458403 0.283270 -0.046560 0.303520 17.918920 -8.016571 3.995656 -11.746285 6.938043 -38.740827 19.991088 -21.117551 52.914621 -1.944130 -10.356716 0.754552 -0.030000 0.545110 0.789560 -2.118363 -5.140415 -9.000968 6.003914 -2.243246 44.561696 5.169551 -1.335379 3.482624 3.149712 8.470016 -6.788797 12.586485 -7.077808 30.927110 -14.877480 5.000170 -26.797570 -19.207941 -14.146754 -0.582804 16.558967 -7.941580 -5.542444 135.210234 -63.096619 -116.292388 -4.198476 2.929289 0.908170 0.349520 0.315430 0.248470 14.005257 9.311631 4.461119 27.481164 3.489970 -17.140525 -22.371425 87.113708 -24.998396 1.373761 -1.059561 -0.274140 0.370400 0.226620 -0.183860 
-1.408480 17.300380 -1.311390 2.208823 5.522054 -9.257626 -15.870358 12.735028 3.896643 -5.140935 -8.192289 -6.722970 -17.114432 20.309299 53.756289 1.226970 12.817877 0.526284 0.257970 -0.069320 0.231920 17.930069 -7.851594 4.073853 -11.470117 7.638930 -38.578297 21.652097 -21.511753 52.522311 -1.975894 -10.488535 0.738469 -0.028200 0.644110 0.811820 -2.125090 -5.490461 -9.014618 6.352562 -2.575163 47.541173 5.007831 -1.930818 2.990777 3.328203 7.087176 -5.537494 9.983109 -4.560545 29.303517 -13.481480 5.894100 -27.167600 -18.239410 -11.554015 -2.059673 20.876490 -6.728909 -5.710510 137.288918 -59.043934 -114.064312 -4.265483 3.005877 0.879510 0.398970 0.268690 0.281250 13.062017 7.165622 3.502537 22.868206 5.948425 -11.352288 -92.112836 85.090941 -87.164662 1.734503 6.503320 -0.291480 0.400170 0.260300 -0.149140 
-1.360180 17.076290 -1.366500 2.525893 7.096556 -12.233048 -15.800121 12.571373 3.974304 -9.342874 -7.503744 -2.468474 -16.868567 20.382989 54.235366 1.332892 13.095832 0.558640 0.133630 -0.237310 0.103000 18.036144 -7.850406 4.066643 -11.923519 7.416928 -37.661123 24.858824 -22.428186 50.853191 -1.917867 -10.675835 0.699758 -0.056360 0.833200 0.790410 -2.392272 -5.256526 -8.965178 10.385988 -4.745746 53.330007 2.620676 -3.129742 1.089466 2.637796 5.328291 -5.025403 7.417278 -2.786203 25.650663 -11.656820 5.727060 -22.447840 -17.087811 -10.319838 -4.684606 32.151767 -5.029989 -5.721671 135.571412 -56.289816 -105.778579 -4.374790 2.981372 0.780450 0.514870 0.095480 0.289460 12.667116 6.385962 5.432434 14.990565 -0.235470 -10.157181 -152.055825 67.355072 -152.322901 1.702464 -1.793213 -0.381620 0.442200 0.347450 -0.118680 
-1.315220 16.858710 -1.411950 3.407588 9.649001 -16.315675 -15.662647 12.284872 4.138063 -13.493899 -6.314473 3.842431 -17.123773 20.170814 53.227526 1.342059 13.253350 0.623751 -0.006140 -0.431810 0.025630 18.185337 -8.187937 3.847585 -12.604787 5.918243 -35.161000 26.316333 -22.625564 49.075235 -1.816215 -10.643216 0.700743 -0.089360 1.017560 0.771720 -2.825102 -4.414363 -8.861999 14.569367 -8.055225 58.689800 -1.655851 -6.244266 0.361506 2.971941 4.799728 -4.326706 6.843427 -2.057040 22.588048 -11.541670 5.447050 -19.368090 -14.500789 -9.828512 -6.828149 43.987921 -5.554849 -5.532397 123.746513 -58.520207 -88.954577 -4.535127 2.505015 0.745600 0.628700 -0.036660 0.277390 9.574863 4.486787 5.947247 11.910597 -3.769773 -8.731526 -157.319070 55.570798 -153.957233 1.680176 -1.804799 -0.514970 0.539930 0.449160 -0.122230 
-1.263920 16.656010 -1.408570 4.690451 9.743880 -18.487441 -15.643530 12.153300 4.262235 -17.078056 -4.009620 7.866522 -16.535593 19.693077 51.557913 1.336016 12.981489 0.722971 0.017440 -0.390930 0.055110 18.229915 -8.215692 3.804615 -12.849135 6.370021 -33.966326 26.851038 -22.462246 49.108503 -1.828214 -10.682251 0.713342 -0.066060 0.987140 0.746750 -2.921381 -4.145191 -8.849390 16.807208 -8.662291 60.860557 -3.608921 -6.897205 2.020878 3.790137 4.716145 -3.965264 6.842844 -2.646654 21.783454 -13.109940 5.112750 -20.363690 -12.281063 -7.828350 -8.057033 47.078914 -3.539538 -5.276705 119.655346 -54.972906 -78.211117 -4.512617 2.368047 0.732380 0.624160 -0.032460 0.280900 5.757399 2.215506 6.189155 10.555268 -7.549956 -8.022185 -156.240942 47.930001 -146.765298 1.700761 -1.830277 -0.513640 0.545170 0.415420 -0.128540 
-1.231100 16.500900 -1.403680 5.712137 8.168124 -19.780465 -15.650739 12.077849 4.332214 -18.818235 -2.336508 9.721783 -17.067725 19.881011 49.867446 1.357138 12.808630 0.752156 0.039950 -0.359020 0.120690 18.244461 -8.152547 3.845192 -12.255067 7.535201 -33.809819 26.389183 -22.412180 50.744053 -1.884455 -10.875485 0.634035 -0.063030 0.900020 0.760540 -2.928355 -4.051879 -8.876108 18.020657 -8.685053 62.409527 -5.090047 -6.617052 2.727312 4.755145 4.551586 -3.680712 6.704754 -3.993419 21.529978 -16.135100 4.880900 -20.678100 -11.389645 -6.343729 -8.987277 48.128599 -3.854335 -5.147943 120.529128 -54.069883 -77.796338 -4.518239 2.445803 0.701590 0.606680 -0.002100 0.242120 2.821906 0.976360 6.459616 10.457958 -10.127625 -8.000211 -154.814637 44.902196 -140.922047 1.731342 -1.885441 -0.465780 0.480200 0.388270 -0.146300 
-1.219040 16.395920 -1.379030 5.511657 7.948987 -19.503452 -15.649365 12.055257 4.299862 -18.726371 -2.148736 9.559795 -16.894789 20.073282 50.335824 1.478855 12.707315 0.783224 0.119310 -0.233040 0.178530 18.258691 -8.074712 3.962735 -11.160300 8.418423 -35.214440 25.228374 -22.513262 52.933348 -1.966677 -11.067147 0.614719 -0.038430 0.768870 0.699850 -2.945121 -4.051056 -8.935763 19.418104 -8.893243 60.660866 -4.975671 -6.002360 3.803521 4.712320 3.955824 -4.224419 5.601588 -5.958540 23.189340 -17.390170 3.723850 -20.316600 -11.105576 -6.281274 -8.290106 44.894241 -3.960162 -5.045515 123.284816 -52.459801 -79.878919 -4.363738 2.599585 0.669450 0.521670 0.057460 0.275380 2.303148 1.534885 6.990122 11.811605 -13.136488 -8.978971 -152.820715 44.608567 -137.160879 1.796041 -1.940685 -0.396110 0.425730 0.257320 -0.120400 
-1.227260 16.356290 -1.347950 4.687550 6.429639 -20.286344 -15.627706 12.127544 4.200284 -16.616417 -1.811211 9.827746 -18.302495 21.261151 49.990282 1.678400 12.750830 0.807457 0.165330 -0.145310 0.198950 18.267521 -8.104560 4.030550 -9.164606 9.757861 -34.897383 23.746280 -22.369385 55.020405 -2.086095 -11.188455 0.645673 -0.067070 0.677530 0.687370 -2.989645 -3.979454 -8.940819 20.959104 -9.503274 60.575817 -5.518345 -5.540959 5.382979 4.885308 3.314792 -5.522226 4.468514 -7.054945 24.937670 -19.051350 3.534930 -21.273300 -10.586030 -7.333464 -6.725683 40.038130 -1.218835 -5.521276 130.362875 -51.163768 -90.197804 -4.170960 2.910437 0.676400 0.439960 0.160710 0.343550 1.074133 3.330456 8.144192 16.992066 -13.699174 -11.390748 -149.040369 46.685569 -133.882235 1.849984 -1.939000 -0.319220 0.383730 0.134300 -0.064990 
-1.240580 16.394210 -1.289940 4.233970 4.321544 -19.880888 -15.521526 12.044997 4.090381 -15.104599 -1.513907 9.103963 -19.286178 21.748049 48.893670 1.763825 12.572798 0.849714 0.198600 -0.121050 0.177460 18.356906 -8.273408 4.118959 -7.453469 10.860537 -34.873357 22.443026 -21.682907 55.795457 -2.111826 -11.042710 0.707798 -0.123870 0.600980 0.677880 -3.265522 -3.435808 -8.948214 22.048731 -9.729499 58.360883 -5.924913 -5.316242 8.011588 4.008506 1.474801 -7.093119 1.163740 -5.630061 28.338176 -16.022000 2.997170 -22.189570 -8.778080 -7.731588 -4.146478 30.823798 1.958153 -6.097239 138.722620 -50.417401 -105.754705 -3.935775 3.253821 0.705610 0.330280 0.203820 0.358230 0.813557 5.206036 8.578399 22.253310 -10.547738 -13.152202 -146.274309 50.464620 -134.404420 1.882905 -1.912318 -0.237420 0.319980 0.101780 -0.033290 
-1.263660 16.491830 -1.220050 4.004011 2.523649 -19.965931 -15.485922 12.197994 4.052277 -13.430557 -1.357192 9.035242 -20.034690 21.895651 47.620857 1.881496 12.418012 0.923353 0.147910 -0.153760 0.079450 18.355701 -8.443224 4.005613 -5.728904 10.786639 -32.941016 20.916353 -20.503200 55.034486 -2.028642 -10.626290 0.863225 -0.206170 0.628850 0.684220 -3.317222 -3.433609 -8.895389 20.981658 -9.659463 56.812816 -5.052649 -5.544706 10.147604 3.361078 -0.899708 -8.681734 -3.211100 -3.298045 31.645558 -13.783420 2.751300 -19.337690 -6.951064 -7.756842 -1.015612 18.728610 4.533279 -6.392303 147.673928 -53.231760 -128.036311 -3.834847 3.435234 0.654730 0.309710 0.209970 0.383480 0.304365 7.388429 8.436713 25.742617 -4.634635 -14.045779 -141.996641 55.662419 -133.526266 1.939165 -1.825780 -0.162320 0.304180 0.119100 0.042620 
